<?xml version="1.0" encoding="UTF-8"?>
<svg width="24px" height="24px" viewBox="0 0 24 24" version="1.1" xmlns="http://www.w3.org/2000/svg" xmlns:xlink="http://www.w3.org/1999/xlink">
    <title>Artboard</title>
    <g id="Artboard" stroke="none" stroke-width="1" fill="none" fill-rule="evenodd">
        <path d="M3.01280956,21.5 L20.9769428,21.5 C21.9812126,21.5 22.736123,21.2428177 23.2416738,20.728453 C23.7472246,20.2140884 24,19.4530387 24,18.4453039 L24,5.56519337 C24,4.56445672 23.7472246,3.803407 23.2416738,3.2820442 C22.736123,2.7606814 21.9812126,2.5 20.9769428,2.5 L3.01280956,2.5 C2.01537148,2.5 1.26387703,2.75718232 0.758326217,3.27154696 C0.252775406,3.7859116 0,4.55046041 0,5.56519337 L0,18.4453039 C0,19.4530387 0.252775406,20.2140884 0.758326217,20.728453 C1.26387703,21.2428177 2.01537148,21.5 3.01280956,21.5 Z M3.04355252,20.2088398 C2.46285226,20.2088398 2.0204953,20.0548803 1.71648164,19.7469613 C1.41246798,19.4390424 1.26046114,18.980663 1.26046114,18.3718232 L1.26046114,5.63867403 C1.26046114,5.02983425 1.41246798,4.56970534 1.71648164,4.25828729 C2.0204953,3.94686924 2.46285226,3.79116022 3.04355252,3.79116022 L20.9564475,3.79116022 C21.5234842,3.79116022 21.9607173,3.94686924 22.2681469,4.25828729 C22.5755764,4.56970534 22.7292912,5.02983425 22.7292912,5.63867403 L22.7292912,18.3718232 C22.7292912,18.980663 22.5755764,19.4390424 22.2681469,19.7469613 C21.9607173,20.0548803 21.5234842,20.2088398 20.9564475,20.2088398 L3.04355252,20.2088398 Z M4.91887276,20.6392265 L19.0913749,20.6392265 C18.9684031,19.911418 18.7019641,19.2290976 18.2920581,18.5922652 C17.882152,17.9554328 17.3595218,17.3990792 16.7241674,16.9232044 C16.088813,16.4473297 15.3697694,16.0729282 14.5670367,15.8 C13.764304,15.5270718 12.9086251,15.3906077 12,15.3906077 C11.1050384,15.3906077 10.2561913,15.5270718 9.45345858,15.8 C8.65072588,16.0729282 7.92997438,16.4473297 7.2912041,16.9232044 C6.65243382,17.3990792 6.12809564,17.9554328 5.71818958,18.5922652 C5.30828352,19.2290976 5.04184458,19.911418 4.91887276,20.6392265 Z M12,13.6585635 C12.6490179,13.6655617 13.23655,13.4993554 13.7625961,13.1599448 C14.2886422,12.8205341 14.70538,12.3551565 15.0128096,11.7638122 C15.3202391,11.1724678 15.4739539,10.5058932 15.4739539,9.7640884 C15.4739539,9.07127072 15.3202391,8.43618785 15.0128096,7.85883978 C14.70538,7.28149171 14.2886422,6.81961326 13.7625961,6.47320442 C13.23655,6.12679558 12.6490179,5.95359116 12,5.95359116 C11.3578138,5.95359116 10.7736977,6.12679558 10.2476516,6.47320442 C9.72160547,6.81961326 9.30486763,7.28149171 8.99743809,7.85883978 C8.69000854,8.43618785 8.53629377,9.07127072 8.53629377,9.7640884 C8.54312553,10.5058932 8.70025619,11.1689687 9.00768574,11.7533149 C9.31511529,12.3376611 9.73014518,12.7995396 10.2527754,13.1389503 C10.7754056,13.478361 11.3578138,13.6515654 12,13.6585635 Z" id="icon" fill="#FFFFFF" fill-rule="nonzero"></path>
    </g>
</svg>